<?xml version="1.0" encoding="UTF-8"?>
<!-- Generated by Pixelmator Pro 3.3.2 -->
<svg width="46" height="45" viewBox="0 0 46 45" xmlns="http://www.w3.org/2000/svg" xmlns:xlink="http://www.w3.org/1999/xlink">
    <path id="path1" fill="#ffffff" fill-rule="evenodd" stroke="none" d="M 24.951904 44.439575 C 22.503418 44.690674 19.031006 44.525024 17.235596 44.071411 C 15.440186 43.617798 12.202637 42.076294 10.040771 40.645752 C 7.87915 39.21521 4.994141 36.122192 3.629883 33.772339 C 2.265381 31.422607 0.840332 27.8125 0.463135 25.75 C 0.085938 23.6875 0.165039 22.001221 0.638672 22.002686 C 1.112305 22.00415 2.399902 23.680298 3.5 25.727295 C 4.626221 27.822998 7.247803 30.436157 9.5 31.70813 C 12.010986 33.126221 15.175293 33.967041 18 33.967041 C 20.825195 33.967041 23.981201 33.128296 26.479736 31.713135 C 28.710938 30.449463 31.449463 27.710938 32.713135 25.479614 C 34.128174 22.981079 34.967041 19.825195 34.967041 17 C 34.967041 14.177734 34.128662 11.019653 32.718262 8.529541 C 31.481445 6.345825 28.901367 3.476196 26.984863 2.15271 C 23.5 -0.253662 23.5 -0.253662 28 0.416992 C 30.475098 0.785767 34.162598 2.182739 36.194824 3.521362 C 38.226807 4.859985 41.00415 7.877808 42.366455 10.227661 C 43.72876 12.577393 45.127197 16.525024 45.474121 19 C 45.872803 21.844116 45.564697 25.264526 44.636719 28.295044 C 43.829346 30.932373 42.017822 34.598877 40.611572 36.442749 C 39.205078 38.286621 36.10791 40.737427 33.729004 41.889038 C 31.350342 43.040649 27.400391 44.188354 24.951904 44.439575 Z"/>
</svg>
